<?xml version="1.0" standalone="no"?>
<!DOCTYPE svg PUBLIC "-//W3C//DTD SVG 20010904//EN"
 "http://www.w3.org/TR/2001/REC-SVG-20010904/DTD/svg10.dtd">
<svg version="1.0" xmlns="http://www.w3.org/2000/svg"
 width="200.000000pt" height="200.000000pt" viewBox="0 0 200.000000 200.000000"
 preserveAspectRatio="xMidYMid meet">
<metadata>
Created by potrace 1.14, written by Peter Selinger 2001-2017
</metadata>
<g transform="translate(0.000000,200.000000) scale(0.100000,-0.100000)"
fill="#000000" stroke="none">
<path d="M362 1631 l-262 -266 0 -370 0 -370 263 -263 262 -262 375 0 375 0
263 263 262 262 0 375 0 375 -263 263 -262 262 -375 -2 -375 -1 -263 -266z
m1255 -13 l253 -253 0 -365 0 -365 -252 -252 -253 -253 -365 0 -365 0 -257
257 -258 258 0 355 0 355 257 257 258 258 365 0 365 0 252 -252z"/>
<path d="M930 1751 c28 -5 36 -12 43 -38 8 -26 6 -37 -12 -59 -14 -18 -21 -39
-19 -61 1 -18 -3 -38 -9 -44 -6 -6 -71 -26 -144 -44 -150 -37 -215 -63 -243
-93 -25 -28 -15 -64 27 -94 27 -20 44 -23 117 -23 96 0 118 9 191 77 l46 43
88 -2 89 -1 57 -50 c66 -57 131 -78 210 -69 62 8 105 32 120 69 24 57 -42 94
-265 149 -66 16 -123 34 -128 41 -4 7 -8 27 -8 44 0 17 -10 43 -21 58 -18 22
-20 33 -12 59 7 26 15 33 43 38 l35 6 -36 2 c-32 1 -38 -3 -49 -29 -22 -53
-36 -56 -60 -11 -19 37 -24 41 -58 40 l-37 -2 35 -6z"/>
<path d="M917 1314 c-13 -13 -7 -42 10 -48 31 -12 128 -17 158 -8 20 5 31 16
33 30 3 21 0 22 -81 22 -47 0 -92 2 -99 5 -8 3 -17 2 -21 -1z"/>
<path d="M958 1119 c41 -36 73 -37 113 -1 l31 28 -88 1 -89 1 33 -29z"/>
<path d="M892 843 l3 -148 38 -3 37 -3 0 83 c0 46 -3 113 -7 151 l-6 67 -34 0
-34 0 3 -147z"/>
<path d="M1080 908 c0 -46 3 -113 7 -150 l6 -68 34 0 34 0 -3 148 -3 147 -37
3 -38 3 0 -83z"/>
<path d="M607 533 c-4 -3 -7 -53 -7 -110 l0 -103 35 0 35 0 0 53 c1 40 3 48
11 35 13 -23 38 -23 55 0 12 15 13 10 14 -35 l0 -53 35 0 36 0 -3 108 -3 107
-32 3 c-26 3 -34 -2 -49 -27 -23 -39 -30 -39 -49 -1 -12 23 -23 30 -44 30 -15
0 -31 -3 -34 -7z"/>
<path d="M882 524 c-20 -14 -22 -24 -22 -99 0 -84 0 -85 30 -100 17 -9 30 -20
30 -25 0 -17 55 -11 71 8 9 9 24 22 34 27 12 7 19 27 22 62 8 76 -3 118 -33
131 -36 17 -106 15 -132 -4z m93 -99 c0 -44 -3 -50 -22 -53 -22 -3 -23 0 -23
53 0 53 1 56 23 53 19 -3 22 -9 22 -53z"/>
<path d="M1077 533 c-4 -3 -7 -17 -7 -29 0 -17 7 -23 28 -26 27 -3 27 -4 30
-80 l3 -78 34 0 35 0 0 80 c0 79 0 80 25 80 21 0 25 5 25 30 l0 30 -83 0 c-46
0 -87 -3 -90 -7z"/>
<path d="M1277 533 c-4 -3 -7 -17 -7 -29 0 -17 7 -23 28 -26 27 -3 27 -4 30
-80 l3 -78 34 0 35 0 0 80 c0 79 0 80 25 80 21 0 25 5 25 30 l0 30 -83 0 c-46
0 -87 -3 -90 -7z"/>
</g>
</svg>
